%TF.GenerationSoftware,Novarm,DipTrace,4.3.0.5*%
%TF.CreationDate,2025-06-08T20:07:48-05:00*%
%FSLAX26Y26*%
%MOIN*%
%TF.FileFunction,Copper,L2,Bot*%
%TF.Part,Single*%
%TA.AperFunction,Conductor*%
%ADD16C,0.059055*%
%ADD17C,0.06*%
%TA.AperFunction,CopperBalancing*%
%ADD18C,0.025*%
%ADD21C,0.700787*%
%ADD22R,0.098425X0.200787*%
%TA.AperFunction,ComponentPad*%
%ADD23R,0.059055X0.167323*%
%ADD24O,0.059055X0.167323*%
%ADD25O,0.059055X0.1591*%
%ADD26O,0.167323X0.059055*%
G75*
G01*
%LPD*%
X1281251Y2293749D2*
D16*
Y2180087D1*
D17*
Y2093749D1*
X1331251Y2043750D1*
Y1431249D1*
X1381251Y2293749D2*
D16*
Y2118747D1*
D17*
X1468750Y2031249D1*
X1618751D1*
X1925001Y1724999D1*
Y1143749D1*
X1718750Y937498D1*
Y772027D1*
D16*
Y712499D1*
X881251Y1431249D2*
D17*
Y1224998D1*
X1100001Y1006249D1*
X1506250D1*
X1556251D1*
X1781251Y1231249D1*
Y1431249D1*
X1506250Y518749D2*
D16*
Y632410D1*
D17*
Y1006249D1*
X1002947Y2584938D2*
D18*
X1010668D1*
X1101844D2*
X1116042D1*
X1531341D2*
X1548159D1*
X991643Y2560069D2*
X999203D1*
X989759Y2535200D2*
X998288D1*
X989741Y2510331D2*
X998288D1*
X989705Y2485462D2*
X998288D1*
X989688Y2460594D2*
X998288D1*
X989670Y2435725D2*
X1000154D1*
X1649849D2*
X1657606D1*
X989634Y2410856D2*
X1014435D1*
X1098058D2*
X1116042D1*
X1531341D2*
X1551945D1*
X1635567D2*
X1657606D1*
X989616Y2385987D2*
X1223281D1*
X1424048D2*
X1657606D1*
X989598Y2361119D2*
X1223281D1*
X1437612D2*
X1657606D1*
X989562Y2336250D2*
X1223281D1*
X1439209D2*
X1657606D1*
X1007360Y2311381D2*
X1223281D1*
X1439209D2*
X1639771D1*
X1029734Y2286512D2*
X1223281D1*
X1439209D2*
X1617380D1*
X1036427Y2261644D2*
X1223281D1*
X1439209D2*
X1610723D1*
X1038687Y2236775D2*
X1223281D1*
X1439209D2*
X1608444D1*
X1032049Y2211906D2*
X1223281D1*
X1439209D2*
X1615101D1*
X1015847Y2187037D2*
X1223246D1*
X1439209D2*
X1631285D1*
X977397Y2162169D2*
X1222815D1*
X1439209D2*
X1669770D1*
X928954Y2137300D2*
X1222815D1*
X1444304D2*
X1713442D1*
X891939Y2112431D2*
X1222815D1*
X1469172D2*
X1747029D1*
X859195Y2087562D2*
X1223156D1*
X1494040D2*
X1780617D1*
X829752Y2062693D2*
X1232235D1*
X1668903D2*
X1814186D1*
X802928Y2037825D2*
X1255577D1*
X1693771D2*
X1842194D1*
X778204Y2012956D2*
X1272820D1*
X1389689D2*
X1405448D1*
X1718639D2*
X1863222D1*
X756458Y1988087D2*
X1272820D1*
X1389689D2*
X1430674D1*
X1743507D2*
X1884268D1*
X736166Y1963218D2*
X1272820D1*
X1389689D2*
X1605179D1*
X1768374D2*
X1905314D1*
X717111Y1938350D2*
X1272820D1*
X1389689D2*
X1630047D1*
X1793260D2*
X1926342D1*
X700784Y1913481D2*
X1272820D1*
X1389689D2*
X1654914D1*
X1818128D2*
X1946581D1*
X477818Y1888612D2*
X513385D1*
X684439D2*
X1272820D1*
X1389689D2*
X1679782D1*
X1842996D2*
X1959212D1*
X455139Y1863743D2*
X625828D1*
X668093D2*
X1272820D1*
X1389689D2*
X1704650D1*
X1867863D2*
X1971844D1*
X447298Y1838875D2*
X1272820D1*
X1389689D2*
X1729518D1*
X1892731D2*
X1984493D1*
X440982Y1814006D2*
X1272820D1*
X1389689D2*
X1754385D1*
X1917599D2*
X1997124D1*
X435349Y1789137D2*
X1212391D1*
X1450100D2*
X1779253D1*
X1942466D2*
X2009755D1*
X445647Y1764268D2*
X1153487D1*
X1509021D2*
X1804121D1*
X1967334D2*
X2022386D1*
X532469Y1739400D2*
X1112722D1*
X1549768D2*
X1829007D1*
X1981544D2*
X2029133D1*
X531500Y1714531D2*
X1081019D1*
X1581490D2*
X1853874D1*
X1983428D2*
X2035161D1*
X530531Y1689662D2*
X1055182D1*
X1607326D2*
X1866559D1*
X1983428D2*
X2041208D1*
X529563Y1664793D2*
X1033651D1*
X1628839D2*
X1866559D1*
X1983428D2*
X2047254D1*
X528576Y1639924D2*
X1015584D1*
X1646924D2*
X1866559D1*
X1983428D2*
X2053283D1*
X527607Y1615056D2*
X1000369D1*
X1662139D2*
X1866559D1*
X1983428D2*
X2059329D1*
X526638Y1590187D2*
X987630D1*
X1674860D2*
X1866559D1*
X1983428D2*
X2065376D1*
X525669Y1565318D2*
X977116D1*
X1685392D2*
X1866559D1*
X1983428D2*
X2086852D1*
X2123538D2*
X2152861D1*
X524682Y1540449D2*
X803598D1*
X958899D2*
X968611D1*
X1693879D2*
X1703609D1*
X1858892D2*
X1866559D1*
X1983428D2*
X2161761D1*
X523713Y1515581D2*
X803598D1*
X1858892D2*
X1866559D1*
X1983428D2*
X2167484D1*
X522745Y1490712D2*
X803598D1*
X1858892D2*
X1866559D1*
X1983428D2*
X2167771D1*
X521776Y1465843D2*
X803598D1*
X1858892D2*
X1866559D1*
X1983428D2*
X2166748D1*
X520807Y1440974D2*
X803598D1*
X1858892D2*
X1866559D1*
X1983428D2*
X2155391D1*
X519820Y1416106D2*
X803598D1*
X1858892D2*
X1866559D1*
X1983428D2*
X2139548D1*
X518851Y1391237D2*
X803598D1*
X1858892D2*
X1866559D1*
X1983428D2*
X2132587D1*
X517882Y1366368D2*
X803598D1*
X1858892D2*
X1866559D1*
X1983428D2*
X2160469D1*
X516913Y1341499D2*
X803598D1*
X1858892D2*
X1866559D1*
X1983428D2*
X2177352D1*
X517793Y1316630D2*
X803598D1*
X958899D2*
X970298D1*
X1692192D2*
X1703609D1*
X1858892D2*
X1866559D1*
X1983428D2*
X2183542D1*
X522637Y1291762D2*
X822814D1*
X939683D2*
X979233D1*
X1683275D2*
X1722825D1*
X1839676D2*
X1866559D1*
X1983428D2*
X2181945D1*
X607252Y1266893D2*
X822814D1*
X939683D2*
X990214D1*
X1672294D2*
X1722825D1*
X1839676D2*
X1866559D1*
X1983428D2*
X2174679D1*
X623687Y1242024D2*
X822814D1*
X945819D2*
X1003455D1*
X1659053D2*
X1710427D1*
X1839676D2*
X1866559D1*
X1983428D2*
X2163196D1*
X633375Y1217155D2*
X823370D1*
X970687D2*
X1019262D1*
X1643246D2*
X1685559D1*
X1837882D2*
X1866559D1*
X1983428D2*
X2150278D1*
X644141Y1192287D2*
X833382D1*
X995573D2*
X1038029D1*
X1624479D2*
X1660692D1*
X1823887D2*
X1866559D1*
X1983428D2*
X2131618D1*
X655983Y1167418D2*
X857227D1*
X1020440D2*
X1060403D1*
X1602105D2*
X1635824D1*
X1799019D2*
X1866559D1*
X1983428D2*
X2111900D1*
X669044Y1142549D2*
X882095D1*
X1045308D2*
X1087352D1*
X1575156D2*
X1610956D1*
X1774152D2*
X1842194D1*
X1983428D2*
X2085561D1*
X683308Y1117680D2*
X906962D1*
X1070176D2*
X1120671D1*
X1541837D2*
X1586089D1*
X1749284D2*
X1817326D1*
X1977884D2*
X2056566D1*
X698882Y1092812D2*
X931830D1*
X1095043D2*
X1164180D1*
X1498310D2*
X1561221D1*
X1724416D2*
X1792458D1*
X715909Y1067943D2*
X956698D1*
X1119911D2*
X1230620D1*
X1431888D2*
X1536335D1*
X1699548D2*
X1767591D1*
X734479Y1043074D2*
X981566D1*
X1674681D2*
X1742723D1*
X1905936D2*
X1915864D1*
X754736Y1018205D2*
X1006433D1*
X1649813D2*
X1717855D1*
X1881051D2*
X1897169D1*
X776823Y993337D2*
X1031319D1*
X1624945D2*
X1692988D1*
X1856183D2*
X1874849D1*
X800955Y968468D2*
X1056187D1*
X1600078D2*
X1669681D1*
X1831315D2*
X1851309D1*
X827330Y943599D2*
X1447809D1*
X1564678D2*
X1660656D1*
X1806447D2*
X1821004D1*
X874033Y918730D2*
X1447809D1*
X1564678D2*
X1660315D1*
X898918Y893861D2*
X1447809D1*
X1564678D2*
X1660315D1*
X909325Y868993D2*
X1447809D1*
X1564678D2*
X1660315D1*
X916017Y844124D2*
X1447809D1*
X1564678D2*
X1660315D1*
X909522Y819255D2*
X1447809D1*
X1564678D2*
X1660315D1*
X899546Y794386D2*
X1447809D1*
X1564678D2*
X1660315D1*
X874750Y769518D2*
X1447809D1*
X1564678D2*
X1660369D1*
X864864Y744649D2*
X1216930D1*
X1420567D2*
X1447809D1*
X1564678D2*
X1616931D1*
X864882Y719780D2*
X973223D1*
X1087167D2*
X1207134D1*
X1430363D2*
X1447809D1*
X1564678D2*
X1607135D1*
X864900Y694911D2*
X936890D1*
X1123518D2*
X1209520D1*
X1427977D2*
X1447809D1*
X1564678D2*
X1609521D1*
X864918Y670043D2*
X916848D1*
X1143559D2*
X1226439D1*
X1411076D2*
X1447809D1*
X1564678D2*
X1626440D1*
X864936Y645174D2*
X904845D1*
X1155562D2*
X1447809D1*
X1564678D2*
X1781801D1*
X864954Y620305D2*
X898619D1*
X1161788D2*
X1375000D1*
X1437504D2*
X1448293D1*
X1564211D2*
X1575000D1*
X1637505D2*
X1781801D1*
X864972Y595436D2*
X897327D1*
X1163062D2*
X1353075D1*
X1659412D2*
X1781801D1*
X864990Y570567D2*
X900844D1*
X1159545D2*
X1348284D1*
X1664203D2*
X1781801D1*
X865008Y545699D2*
X909600D1*
X1150808D2*
X1348284D1*
X1664203D2*
X1781801D1*
X865026Y520830D2*
X924887D1*
X1135503D2*
X1348284D1*
X1664203D2*
X1781801D1*
X865098Y495961D2*
X950544D1*
X1109864D2*
X1348284D1*
X1664203D2*
X1781765D1*
X870283Y471092D2*
X1017647D1*
X1042742D2*
X1348284D1*
X1664203D2*
X1776562D1*
X888817Y446224D2*
X1351424D1*
X1661081D2*
X1758046D1*
X1257809Y1062182D2*
X1251567Y1063455D1*
X1242600Y1065512D1*
X1233686Y1067789D1*
X1224830Y1070283D1*
X1216037Y1072992D1*
X1207314Y1075915D1*
X1198665Y1079051D1*
X1190094Y1082398D1*
X1181609Y1085953D1*
X1173212Y1089714D1*
X1164911Y1093680D1*
X1156708Y1097847D1*
X1148610Y1102213D1*
X1140621Y1106776D1*
X1132746Y1111533D1*
X1124990Y1116482D1*
X1117357Y1121618D1*
X1109851Y1126939D1*
X1102479Y1132442D1*
X1095242Y1138124D1*
X1088147Y1143981D1*
X1081197Y1150010D1*
X1074397Y1156207D1*
X1067750Y1162568D1*
X1061261Y1169090D1*
X1054933Y1175768D1*
X1048770Y1182599D1*
X1042776Y1189579D1*
X1036954Y1196703D1*
X1031309Y1203968D1*
X1025842Y1211368D1*
X1020558Y1218900D1*
X1015460Y1226558D1*
X1010551Y1234339D1*
X1005833Y1242238D1*
X1001310Y1250249D1*
X996984Y1258369D1*
X992857Y1266592D1*
X988933Y1274914D1*
X985214Y1283329D1*
X983434Y1287563D1*
X981707Y1291819D1*
X980031Y1296095D1*
X978408Y1300392D1*
X976837Y1304708D1*
X975319Y1309043D1*
X973854Y1313396D1*
X972442Y1317767D1*
X971084Y1322155D1*
X969779Y1326559D1*
X968528Y1330979D1*
X967331Y1335413D1*
X966189Y1339862D1*
X965101Y1344324D1*
X964067Y1348799D1*
X963088Y1353287D1*
X962164Y1357786D1*
X961295Y1362297D1*
X960481Y1366817D1*
X959722Y1371347D1*
X959019Y1375886D1*
X958371Y1380433D1*
X957778Y1384988D1*
X957242Y1389550D1*
X956760Y1394118D1*
X956397Y1398025D1*
Y1304921D1*
X937190D1*
X937185Y1248167D1*
X1123167Y1062184D1*
X1257677Y1062182D1*
X1225790Y2187348D2*
Y2397640D1*
X1131042Y2397641D1*
X1126667Y2398428D1*
X1121736Y2401786D1*
X1118922Y2407046D1*
X1118533Y2410141D1*
Y2609804D1*
X1051296Y2609806D1*
X1032943Y2607390D1*
X1018193Y2601281D1*
X1005524Y2591562D1*
X995802Y2578895D1*
X989682Y2564127D1*
X987267Y2545763D1*
X987059Y2324504D1*
X990191Y2323659D1*
X993343Y2322335D1*
X995807Y2320423D1*
X1023950Y2292302D1*
X1026015Y2289582D1*
X1027194Y2286695D1*
X1037516Y2248273D1*
X1037946Y2244885D1*
X1037524Y2241795D1*
X1027263Y2203357D1*
X1025942Y2200208D1*
X1024032Y2197742D1*
X995934Y2169577D1*
X993216Y2167509D1*
X990330Y2166328D1*
X963633Y2159133D1*
X923220Y2135399D1*
X883412Y2108339D1*
X845463Y2078818D1*
X809502Y2046964D1*
X775659Y2012909D1*
X744047Y1976738D1*
X714867Y1938728D1*
X664146Y1861539D1*
X663400Y1860518D1*
X658644Y1856916D1*
X652761Y1855928D1*
X649704Y1856546D1*
X581676Y1879447D1*
X539884Y1887368D1*
X484427Y1890244D1*
X478666Y1889589D1*
X475497Y1888697D1*
X472162Y1887109D1*
X468111Y1884251D1*
X461386Y1877627D1*
X455202Y1869154D1*
X449313Y1856702D1*
X433218Y1793218D1*
X432323Y1783242D1*
X432624Y1779057D1*
X433579Y1775249D1*
X434090Y1774117D1*
X438239Y1768192D1*
X440480Y1765905D1*
X442212Y1764687D1*
X444273Y1763764D1*
X454142Y1761444D1*
X518609Y1756364D1*
X522459Y1755435D1*
X527256Y1751888D1*
X529861Y1746521D1*
X530129Y1743413D1*
X514034Y1331967D1*
X515644Y1312321D1*
X518261Y1298017D1*
X521937Y1285788D1*
X524413Y1280047D1*
X527001Y1275510D1*
X529293Y1272511D1*
X531088Y1270800D1*
X532789Y1269676D1*
X533232Y1269502D1*
X534236Y1269303D1*
X537638Y1269308D1*
X542260Y1270094D1*
X548810Y1272222D1*
X575912Y1284803D1*
X581786Y1285842D1*
X587474Y1284041D1*
X589913Y1282097D1*
X614298Y1257096D1*
X615549Y1255597D1*
X617023Y1252848D1*
X629616Y1220084D1*
X641045Y1193519D1*
X653450Y1167485D1*
X666816Y1142026D1*
X681120Y1117148D1*
X696333Y1092888D1*
X712448Y1069247D1*
X729426Y1046274D1*
X747242Y1023979D1*
X765895Y1002378D1*
X785337Y981513D1*
X805556Y961394D1*
X826503Y942058D1*
X842105Y928728D1*
X865386Y922492D1*
X868535Y921169D1*
X870999Y919257D1*
X899141Y891141D1*
X901206Y888422D1*
X902385Y885535D1*
X912711Y847118D1*
X913142Y843730D1*
X912720Y840640D1*
X902466Y802204D1*
X901146Y799055D1*
X899237Y796589D1*
X871147Y768420D1*
X868431Y766352D1*
X865544Y765170D1*
X862340Y764305D1*
X862554Y496240D1*
X864974Y477863D1*
X871088Y463108D1*
X880812Y450441D1*
X893482Y440722D1*
X908236Y434612D1*
X926581Y432199D1*
X1361397Y432192D1*
X1357352Y438444D1*
X1353706Y446865D1*
X1351499Y455771D1*
X1350789Y464615D1*
Y572882D1*
X1351548Y582027D1*
X1353804Y590921D1*
X1357496Y599321D1*
X1362523Y606998D1*
X1368746Y613741D1*
X1375996Y619365D1*
X1384074Y623717D1*
X1392759Y626678D1*
X1401814Y628166D1*
X1410990Y628140D1*
X1420036Y626603D1*
X1428704Y623594D1*
X1436759Y619198D1*
X1443978Y613534D1*
X1450164Y606757D1*
X1450792Y605786D1*
X1450789Y625152D1*
X1450329Y631231D1*
X1450316Y650497D1*
Y950319D1*
X1100001Y950315D1*
X1090855Y951068D1*
X1081956Y953306D1*
X1073543Y956968D1*
X1065835Y961963D1*
X1060431Y966717D1*
X841700Y1185447D1*
X835766Y1192446D1*
X831056Y1200321D1*
X827697Y1208860D1*
X825778Y1217842D1*
X825318Y1225025D1*
X825321Y1304921D1*
X806105D1*
Y1557576D1*
X956397D1*
Y1464440D1*
X956673Y1467492D1*
X957144Y1472061D1*
X957670Y1476623D1*
X958251Y1481180D1*
X958888Y1485728D1*
X959581Y1490269D1*
X960329Y1494801D1*
X961132Y1499323D1*
X961991Y1503835D1*
X962904Y1508337D1*
X963873Y1512827D1*
X964896Y1517305D1*
X965973Y1521769D1*
X967105Y1526221D1*
X968291Y1530658D1*
X969532Y1535081D1*
X970826Y1539488D1*
X972174Y1543879D1*
X973575Y1548253D1*
X975030Y1552610D1*
X976538Y1556948D1*
X978098Y1561268D1*
X979711Y1565569D1*
X981377Y1569849D1*
X983095Y1574109D1*
X984864Y1578348D1*
X986685Y1582564D1*
X990487Y1590942D1*
X994493Y1599225D1*
X998700Y1607407D1*
X1003106Y1615484D1*
X1007708Y1623450D1*
X1012503Y1631302D1*
X1017488Y1639035D1*
X1022662Y1646643D1*
X1028019Y1654122D1*
X1033558Y1661468D1*
X1039275Y1668677D1*
X1045167Y1675743D1*
X1051229Y1682664D1*
X1057459Y1689434D1*
X1063852Y1696050D1*
X1070405Y1702507D1*
X1077114Y1708803D1*
X1083975Y1714933D1*
X1090984Y1720893D1*
X1098136Y1726680D1*
X1105428Y1732290D1*
X1112855Y1737720D1*
X1120412Y1742968D1*
X1128095Y1748029D1*
X1135900Y1752900D1*
X1143821Y1757580D1*
X1151855Y1762064D1*
X1159995Y1766351D1*
X1168238Y1770437D1*
X1176579Y1774321D1*
X1185012Y1777999D1*
X1193532Y1781471D1*
X1202134Y1784733D1*
X1210814Y1787783D1*
X1219566Y1790621D1*
X1228385Y1793244D1*
X1237264Y1795650D1*
X1246201Y1797839D1*
X1255188Y1799808D1*
X1264220Y1801558D1*
X1273293Y1803086D1*
X1275311Y1803375D1*
X1275318Y1973064D1*
Y2020584D1*
X1241701Y2054197D1*
X1235766Y2061196D1*
X1231056Y2069071D1*
X1227697Y2077610D1*
X1225778Y2086592D1*
X1225318Y2093774D1*
Y2180096D1*
X1225790Y2187348D1*
X1160369Y592020D2*
X1159397Y582861D1*
X1157782Y573793D1*
X1155531Y564862D1*
X1152655Y556111D1*
X1149170Y547586D1*
X1145092Y539327D1*
X1140441Y531377D1*
X1135242Y523774D1*
X1129518Y516557D1*
X1123300Y509762D1*
X1116619Y503423D1*
X1109506Y497570D1*
X1101999Y492234D1*
X1094134Y487441D1*
X1085950Y483214D1*
X1077489Y479576D1*
X1068792Y476543D1*
X1059903Y474131D1*
X1050866Y472352D1*
X1041725Y471215D1*
X1032528Y470726D1*
X1023319Y470887D1*
X1014144Y471697D1*
X1005049Y473152D1*
X996079Y475245D1*
X987279Y477965D1*
X978694Y481300D1*
X970364Y485231D1*
X962333Y489741D1*
X954640Y494806D1*
X947324Y500401D1*
X940420Y506498D1*
X933963Y513066D1*
X927986Y520074D1*
X922518Y527486D1*
X917587Y535266D1*
X913217Y543373D1*
X909429Y551769D1*
X906243Y560411D1*
X903675Y569257D1*
X901737Y578261D1*
X900439Y587380D1*
X899787Y596567D1*
X899786Y605778D1*
X900433Y614966D1*
X901728Y624085D1*
X903662Y633090D1*
X906227Y641936D1*
X909409Y650580D1*
X913194Y658977D1*
X917561Y667087D1*
X922489Y674868D1*
X927954Y682282D1*
X933928Y689292D1*
X940382Y695864D1*
X947283Y701963D1*
X954597Y707561D1*
X962289Y712629D1*
X970318Y717142D1*
X978646Y721077D1*
X987230Y724415D1*
X996029Y727139D1*
X1004997Y729236D1*
X1014092Y730694D1*
X1023266Y731508D1*
X1032476Y731672D1*
X1041673Y731187D1*
X1050814Y730053D1*
X1059852Y728278D1*
X1068742Y725870D1*
X1077440Y722841D1*
X1085903Y719205D1*
X1094088Y714982D1*
X1101955Y710192D1*
X1109465Y704859D1*
X1116580Y699009D1*
X1123264Y692672D1*
X1129484Y685880D1*
X1135210Y678665D1*
X1140413Y671065D1*
X1145067Y663116D1*
X1149148Y654859D1*
X1152637Y646335D1*
X1155516Y637586D1*
X1157771Y628656D1*
X1159390Y619588D1*
X1160365Y610430D1*
X1160692Y601199D1*
X1160369Y592020D1*
X1111712Y2541683D2*
Y2449976D1*
X1110953Y2440831D1*
X1108697Y2431937D1*
X1105005Y2423537D1*
X1099978Y2415860D1*
X1093755Y2409117D1*
X1086505Y2403493D1*
X1078427Y2399141D1*
X1069741Y2396180D1*
X1060687Y2394692D1*
X1051511Y2394718D1*
X1042465Y2396255D1*
X1033796Y2399264D1*
X1025742Y2403660D1*
X1018523Y2409324D1*
X1012337Y2416101D1*
X1007353Y2423805D1*
X1003707Y2432226D1*
X1001500Y2441132D1*
X1000790Y2449976D1*
Y2550020D1*
X1001549Y2559165D1*
X1003806Y2568059D1*
X1007498Y2576459D1*
X1012524Y2584136D1*
X1018748Y2590878D1*
X1025998Y2596503D1*
X1034076Y2600855D1*
X1042761Y2603815D1*
X1051815Y2605303D1*
X1060991Y2605278D1*
X1070037Y2603740D1*
X1078706Y2600732D1*
X1086760Y2596336D1*
X1093979Y2590672D1*
X1100165Y2583895D1*
X1105149Y2576191D1*
X1108795Y2567770D1*
X1111003Y2558864D1*
X1111712Y2550020D1*
Y2541683D1*
X1649211Y2541684D2*
Y2449977D1*
X1648452Y2440832D1*
X1646195Y2431938D1*
X1642503Y2423538D1*
X1637477Y2415861D1*
X1631253Y2409119D1*
X1624003Y2403494D1*
X1615925Y2399142D1*
X1607240Y2396182D1*
X1598186Y2394694D1*
X1589010Y2394719D1*
X1579964Y2396257D1*
X1571295Y2399265D1*
X1563241Y2403661D1*
X1556022Y2409326D1*
X1549836Y2416102D1*
X1544852Y2423807D1*
X1541206Y2432227D1*
X1538999Y2441133D1*
X1538289Y2449977D1*
Y2550022D1*
X1539048Y2559166D1*
X1541304Y2568060D1*
X1544996Y2576460D1*
X1550023Y2584137D1*
X1556246Y2590880D1*
X1563496Y2596504D1*
X1571574Y2600856D1*
X1580260Y2603817D1*
X1589314Y2605305D1*
X1598490Y2605280D1*
X1607536Y2603742D1*
X1616205Y2600733D1*
X1624259Y2596337D1*
X1631478Y2590673D1*
X1637664Y2583896D1*
X1642648Y2576192D1*
X1646294Y2567771D1*
X1648501Y2558865D1*
X1649211Y2550022D1*
Y2541684D1*
X1363861Y657038D2*
X1264616D1*
X1255472Y657797D1*
X1246578Y660054D1*
X1238177Y663746D1*
X1230501Y668772D1*
X1223758Y674996D1*
X1218133Y682246D1*
X1213781Y690324D1*
X1210821Y699009D1*
X1209333Y708063D1*
X1209358Y717239D1*
X1210896Y726285D1*
X1213904Y734954D1*
X1218300Y743008D1*
X1223965Y750227D1*
X1230741Y756413D1*
X1238446Y761397D1*
X1246866Y765043D1*
X1255773Y767251D1*
X1264616Y767960D1*
X1372884D1*
X1382028Y767201D1*
X1390922Y764945D1*
X1399323Y761253D1*
X1406999Y756226D1*
X1413742Y750003D1*
X1419366Y742753D1*
X1423718Y734675D1*
X1426679Y725990D1*
X1428167Y716935D1*
X1428142Y707759D1*
X1426604Y698713D1*
X1423596Y690045D1*
X1419199Y681990D1*
X1413535Y674772D1*
X1406758Y668585D1*
X1399054Y663601D1*
X1390634Y659955D1*
X1381727Y657748D1*
X1372884Y657038D1*
X1363861D1*
X1977940Y1125696D2*
X1980181Y1134603D1*
X1980934Y1143749D1*
X1980922Y1726179D1*
X1979976Y1735306D1*
X1977551Y1744156D1*
X1973712Y1752490D1*
X1968556Y1760091D1*
X1964532Y1764570D1*
X1657459Y2071625D1*
X1650337Y2077410D1*
X1642365Y2081953D1*
X1633757Y2085132D1*
X1624736Y2086860D1*
X1618726Y2087182D1*
X1491914Y2087186D1*
X1436712Y2142386D1*
Y2347882D1*
X1436003Y2356726D1*
X1433795Y2365632D1*
X1430149Y2374053D1*
X1425165Y2381757D1*
X1418979Y2388534D1*
X1411760Y2394198D1*
X1405460Y2397637D1*
X1516340Y2397641D1*
X1519435Y2398030D1*
X1524696Y2400844D1*
X1528054Y2405781D1*
X1528840Y2410154D1*
X1528841Y2609806D1*
X1596086Y2609805D1*
X1614447Y2607385D1*
X1629199Y2601272D1*
X1641865Y2591549D1*
X1651584Y2578880D1*
X1657692Y2564129D1*
X1660108Y2545782D1*
X1660110Y2324514D1*
X1656916Y2323658D1*
X1654024Y2322477D1*
X1651305Y2320415D1*
X1623158Y2292270D1*
X1621243Y2289801D1*
X1619920Y2286655D1*
X1609617Y2248207D1*
X1609193Y2245112D1*
X1609620Y2241726D1*
X1620067Y2202777D1*
X1623157Y2197674D1*
X1651311Y2169520D1*
X1653780Y2167605D1*
X1656925Y2166282D1*
X1684022Y2159020D1*
X1694596Y2153114D1*
X1835307Y2048909D1*
X1947878Y1915856D1*
X2026229Y1761624D1*
X2067679Y1590964D1*
X2068803Y1588018D1*
X2074878Y1576619D1*
X2076682Y1574068D1*
X2079092Y1572021D1*
X2089908Y1564960D1*
X2092718Y1563594D1*
X2095817Y1562962D1*
X2108678Y1561988D1*
X2113943Y1562715D1*
X2123987Y1566418D1*
X2133273Y1570407D1*
X2147320Y1572566D1*
X2149641Y1571967D1*
X2152796Y1569546D1*
X2160454Y1556945D1*
X2171096Y1510784D1*
X2168938Y1458317D1*
X2135176Y1405331D1*
X2133841Y1402512D1*
X2133387Y1396564D1*
X2135745Y1391079D1*
X2137657Y1389060D1*
X2159142Y1370902D1*
X2174849Y1352332D1*
X2182790Y1335138D1*
X2186208Y1315652D1*
X2184650Y1292459D1*
X2175342Y1260593D1*
X2150762Y1213278D1*
X2108819Y1160367D1*
X2054593Y1113841D1*
X2026884Y1099535D1*
X2018390Y1099283D1*
X1978539Y1116329D1*
X1975535Y1117188D1*
X1977940Y1125696D1*
X1946478Y1086125D2*
X1782677Y922323D1*
X1804793Y928246D1*
X1858358Y972200D1*
X1908682Y1028232D1*
X1946478Y1086123D1*
X1679218Y977068D2*
X1869067Y1166924D1*
X1869066Y1701832D1*
X1595588Y1975315D1*
X1468750D1*
X1459605Y1976068D1*
X1450706Y1978306D1*
X1442292Y1981968D1*
X1434584Y1986963D1*
X1429181Y1991716D1*
X1387185Y2033711D1*
X1387181Y1803368D1*
X1392395Y1802575D1*
X1401455Y1800969D1*
X1410472Y1799143D1*
X1419441Y1797096D1*
X1428359Y1794831D1*
X1437218Y1792348D1*
X1446013Y1789650D1*
X1454740Y1786738D1*
X1463394Y1783613D1*
X1471968Y1780277D1*
X1480458Y1776733D1*
X1488859Y1772982D1*
X1497166Y1769027D1*
X1505374Y1764870D1*
X1513477Y1760514D1*
X1521472Y1755961D1*
X1529353Y1751214D1*
X1537116Y1746275D1*
X1544755Y1741149D1*
X1552267Y1735837D1*
X1559647Y1730343D1*
X1566890Y1724670D1*
X1573993Y1718822D1*
X1580950Y1712802D1*
X1587758Y1706614D1*
X1594413Y1700261D1*
X1600911Y1693748D1*
X1607247Y1687077D1*
X1613419Y1680254D1*
X1619421Y1673282D1*
X1625252Y1666165D1*
X1630907Y1658907D1*
X1636383Y1651514D1*
X1641676Y1643989D1*
X1646784Y1636337D1*
X1651703Y1628562D1*
X1656431Y1620670D1*
X1660964Y1612664D1*
X1665300Y1604549D1*
X1669437Y1596332D1*
X1673372Y1588015D1*
X1677102Y1579605D1*
X1678886Y1575373D1*
X1680620Y1571119D1*
X1682301Y1566845D1*
X1683929Y1562550D1*
X1685506Y1558236D1*
X1687029Y1553903D1*
X1688500Y1549551D1*
X1689917Y1545182D1*
X1691281Y1540796D1*
X1692591Y1536394D1*
X1693847Y1531976D1*
X1695050Y1527543D1*
X1696198Y1523096D1*
X1697292Y1518635D1*
X1698331Y1514161D1*
X1699316Y1509674D1*
X1700245Y1505176D1*
X1701120Y1500667D1*
X1701940Y1496148D1*
X1702704Y1491619D1*
X1703414Y1487080D1*
X1704067Y1482534D1*
X1704665Y1477980D1*
X1705208Y1473419D1*
X1705695Y1468852D1*
X1706105Y1464498D1*
Y1557576D1*
X1856397D1*
Y1304922D1*
X1837190D1*
X1837185Y1231249D1*
X1836432Y1222103D1*
X1834194Y1213204D1*
X1830531Y1204791D1*
X1825537Y1197083D1*
X1820784Y1191679D1*
X1595802Y966698D1*
X1588803Y960763D1*
X1580928Y956053D1*
X1572389Y952694D1*
X1563407Y950776D1*
X1562183Y942230D1*
Y632410D1*
X1561711Y626667D1*
X1561713Y605761D1*
X1562523Y606998D1*
X1568746Y613741D1*
X1575996Y619365D1*
X1584074Y623717D1*
X1592760Y626678D1*
X1601814Y628166D1*
X1610990Y628140D1*
X1620036Y626603D1*
X1628705Y623594D1*
X1636759Y619198D1*
X1643978Y613534D1*
X1650164Y606757D1*
X1655148Y599053D1*
X1658794Y590632D1*
X1661001Y581726D1*
X1661711Y572882D1*
Y464615D1*
X1660952Y455470D1*
X1658695Y446576D1*
X1655003Y438176D1*
X1651091Y432201D1*
X1720267Y432200D1*
X1738618Y434617D1*
X1753369Y440726D1*
X1766052Y450456D1*
X1775761Y463111D1*
X1781874Y477862D1*
X1784296Y496223D1*
X1784293Y658384D1*
X1781727Y657748D1*
X1772884Y657038D1*
X1664616D1*
X1655472Y657797D1*
X1646578Y660054D1*
X1638177Y663746D1*
X1630501Y668772D1*
X1623758Y674996D1*
X1618133Y682246D1*
X1613781Y690324D1*
X1610821Y699009D1*
X1609333Y708063D1*
X1609358Y717239D1*
X1610896Y726285D1*
X1613904Y734954D1*
X1618300Y743008D1*
X1623965Y750227D1*
X1630742Y756413D1*
X1638446Y761397D1*
X1646866Y765043D1*
X1655773Y767251D1*
X1662966Y767828D1*
X1662829Y770848D1*
X1662817Y790406D1*
Y937498D1*
X1663569Y946643D1*
X1665807Y955542D1*
X1669470Y963955D1*
X1674465Y971663D1*
X1679218Y977068D1*
X1506307Y1062182D2*
X1533091D1*
X1698335Y1227434D1*
X1725314Y1254413D1*
X1725321Y1304922D1*
X1706105D1*
Y1398040D1*
X1705783Y1394533D1*
X1705307Y1389965D1*
X1704775Y1385403D1*
X1704188Y1380847D1*
X1703545Y1376299D1*
X1702847Y1371760D1*
X1702093Y1367229D1*
X1701284Y1362707D1*
X1700420Y1358196D1*
X1699501Y1353696D1*
X1698527Y1349207D1*
X1697498Y1344731D1*
X1696415Y1340267D1*
X1695277Y1335817D1*
X1694085Y1331381D1*
X1692839Y1326960D1*
X1691540Y1322555D1*
X1690186Y1318166D1*
X1688779Y1313793D1*
X1687319Y1309438D1*
X1685806Y1305102D1*
X1684240Y1300784D1*
X1682621Y1296485D1*
X1680950Y1292207D1*
X1679227Y1287949D1*
X1677452Y1283713D1*
X1675626Y1279498D1*
X1671813Y1271125D1*
X1667797Y1262848D1*
X1663580Y1254671D1*
X1659164Y1246600D1*
X1654552Y1238639D1*
X1649747Y1230793D1*
X1644752Y1223067D1*
X1639569Y1215466D1*
X1634202Y1207993D1*
X1628653Y1200654D1*
X1622928Y1193453D1*
X1617027Y1186393D1*
X1610956Y1179481D1*
X1604718Y1172718D1*
X1598316Y1166110D1*
X1591755Y1159661D1*
X1585038Y1153374D1*
X1578169Y1147253D1*
X1571153Y1141302D1*
X1563993Y1135524D1*
X1556695Y1129923D1*
X1549261Y1124502D1*
X1541697Y1119264D1*
X1534008Y1114213D1*
X1526197Y1109351D1*
X1518270Y1104681D1*
X1510230Y1100207D1*
X1502084Y1095931D1*
X1493836Y1091855D1*
X1485491Y1087982D1*
X1477053Y1084314D1*
X1468529Y1080853D1*
X1459922Y1077602D1*
X1451238Y1074562D1*
X1442483Y1071736D1*
X1433661Y1069124D1*
X1424778Y1066729D1*
X1415839Y1064551D1*
X1406850Y1062593D1*
X1404706Y1062181D1*
X1506185Y1062182D1*
D21*
X1331251Y1431249D3*
D22*
X1781251D3*
X881251D3*
D23*
X1281251Y2293749D3*
D24*
X1381251D3*
D25*
X1056251Y2499998D3*
X1593750Y2499999D3*
D26*
X1718750Y712499D3*
X1318750D3*
D24*
X1606250Y518749D3*
X1506250D3*
X1406250D3*
M02*
