%TF.GenerationSoftware,Novarm,DipTrace,4.3.0.5*%
%TF.CreationDate,2025-06-08T20:07:48-05:00*%
%FSLAX26Y26*%
%MOIN*%
%TF.FileFunction,Profile*%
%TF.Part,Single*%
%ADD12C,0.005512*%
G75*
G01*
%LPD*%
X2105091Y1600050D2*
D12*
X2062585Y1775064D1*
X1980170Y1937296D1*
X1861810Y2077191D1*
X1715524Y2185523D1*
X1698608Y2194972D1*
G02X1698608Y2294972I0J50000D01*
G01*
Y2312741D1*
Y2430524D1*
Y2548305D1*
G03X1598608Y2648306I-100005J-3D01*
G01*
X1490340D1*
Y2577583D1*
Y2506863D1*
Y2436141D1*
X1379238D1*
X1268136D1*
X1157033D1*
Y2506863D1*
Y2577583D1*
Y2648306D1*
X1048766D1*
G03X948768Y2548305I7J-100005D01*
G01*
X948531Y2294960D1*
G02X948608Y2194959I-1J-50001D01*
G01*
X902624Y2167952D1*
X860749Y2139486D1*
X820852Y2108451D1*
X783057Y2074972D1*
X747480Y2039171D1*
X714252Y2001153D1*
X683466Y1961049D1*
X642978Y1899434D1*
X591443Y1916783D1*
X544489Y1925680D1*
X483242Y1928857D1*
X471233Y1927493D1*
X461905Y1924868D1*
X452650Y1920459D1*
X443346Y1913897D1*
X432140Y1902860D1*
X421956Y1888909D1*
X412914Y1869789D1*
X395146Y1799710D1*
X393700Y1783595D1*
X394462Y1772952D1*
X397073Y1762544D1*
X400486Y1754985D1*
X408519Y1743515D1*
X415447Y1736441D1*
X423098Y1731062D1*
X431890Y1727125D1*
X448191Y1723293D1*
X490682Y1719945D1*
X475472Y1331141D1*
X477428Y1307270D1*
X480773Y1288989D1*
X485708Y1272571D1*
X489909Y1262834D1*
X494842Y1254186D1*
X500539Y1246731D1*
X507008Y1240564D1*
X514266Y1235772D1*
X518201Y1233935D1*
X522335Y1232491D1*
X526666Y1231441D1*
X531208Y1230798D1*
X540918Y1230813D1*
X551485Y1232611D1*
X562915Y1236323D1*
X575210Y1242032D1*
X583006Y1234040D1*
X593951Y1205564D1*
X605972Y1177624D1*
X619015Y1150249D1*
X633071Y1123476D1*
X648109Y1097321D1*
X664107Y1071810D1*
X681049Y1046955D1*
X698897Y1022806D1*
X717625Y999369D1*
X737230Y976666D1*
X757663Y954737D1*
X778911Y933594D1*
X800932Y913267D1*
X823726Y893792D1*
G02X823818Y793791I-1J-50001D01*
G01*
X824056Y493699D1*
G03X924057Y393700I100005J6D01*
G01*
X1722797D1*
G03X1822794Y493699I-10J100007D01*
G01*
Y793213D1*
G02X1822794Y893213I1J50000D01*
G01*
X1885039Y944291D1*
X1939304Y1004709D1*
X1983464Y1072348D1*
X2011049Y1060549D1*
X2036772Y1061312D1*
X2076247Y1081692D1*
X2136693Y1133554D1*
X2183228Y1192256D1*
X2211247Y1246193D1*
X2222783Y1285695D1*
X2224934Y1317716D1*
X2219844Y1346730D1*
X2207613Y1373213D1*
X2186456Y1398226D1*
X2179855Y1403805D1*
X2206982Y1446377D1*
X2209776Y1514381D1*
X2196577Y1571640D1*
X2181941Y1595720D1*
X2166852Y1607283D1*
X2149291Y1611822D1*
X2122585Y1607716D1*
X2105747Y1600497D1*
X2105498Y1600378D1*
X2105091Y1600050D1*
M02*
