%TF.GenerationSoftware,Novarm,DipTrace,4.3.0.5*%
%TF.CreationDate,2025-06-08T20:07:48-05:00*%
%FSLAX26Y26*%
%MOIN*%
%TF.FileFunction,Legend,Bot*%
%TF.Part,Single*%
%ADD10C,0.009843*%
%ADD44C,0.004632*%
%ADD48C,0.006176*%
%ADD49C,0.003088*%
G75*
G01*
%LPD*%
X1631251Y1931249D2*
D10*
X1856251Y1556249D1*
X1031251Y1931249D2*
X806251Y1556249D1*
X1631251Y1931249D2*
X1031251D1*
X806251Y1306249D2*
X1006251Y931249D1*
X1656251D2*
X1856251Y1306249D1*
Y1556249D2*
Y1306249D1*
X1656251Y931249D2*
X1006251D1*
X806251Y1306249D2*
Y1556249D1*
X1593750Y2362498D2*
X1525001Y2187498D1*
X1437501Y2143749D2*
X1162501D1*
X1056250Y2412499D2*
Y2362498D1*
X1437501Y2187498D2*
X1612501D1*
Y2106249D1*
X1437501D1*
Y2187498D1*
X1593750Y2412499D2*
Y2362498D1*
Y2412499D2*
X1575001Y2393749D1*
X1593750Y2412499D2*
X1612501Y2393749D1*
X1056250Y2412499D2*
X1037501Y2393749D1*
X1056250Y2412499D2*
X1075001Y2393749D1*
X1162501Y2143749D2*
X1056251Y2362498D1*
X1723904Y2061432D2*
D48*
X1748753D1*
Y2021240D1*
X1723904D1*
X1748753Y2042287D2*
X1733454D1*
X1711552Y2061432D2*
Y2021240D1*
X1688604D1*
X1651404Y2061432D2*
X1676253D1*
Y2021240D1*
X1651404D1*
X1676253Y2042287D2*
X1660954D1*
X1610356Y2051882D2*
X1612258Y2055684D1*
X1616105Y2059531D1*
X1619907Y2061432D1*
X1627556D1*
X1631403Y2059531D1*
X1635206Y2055684D1*
X1637151Y2051882D1*
X1639052Y2046134D1*
Y2036539D1*
X1637151Y2030835D1*
X1635206Y2026988D1*
X1631403Y2023186D1*
X1627556Y2021240D1*
X1619907D1*
X1616105Y2023186D1*
X1612258Y2026988D1*
X1610356Y2030835D1*
X1584608Y2061432D2*
Y2021240D1*
X1598005Y2061432D2*
X1571210D1*
X1558859Y2042287D2*
X1541659D1*
X1535911Y2044232D1*
X1533966Y2046134D1*
X1532064Y2049936D1*
Y2053783D1*
X1533966Y2057586D1*
X1535911Y2059531D1*
X1541659Y2061432D1*
X1558859D1*
Y2021240D1*
X1545462Y2042287D2*
X1532064Y2021240D1*
X1508217Y2061432D2*
X1512064Y2059531D1*
X1515866Y2055684D1*
X1517812Y2051882D1*
X1519713Y2046134D1*
Y2036539D1*
X1517812Y2030835D1*
X1515866Y2026988D1*
X1512064Y2023186D1*
X1508217Y2021240D1*
X1500568D1*
X1496765Y2023186D1*
X1492918Y2026988D1*
X1491017Y2030835D1*
X1489116Y2036539D1*
Y2046134D1*
X1491017Y2051882D1*
X1492918Y2055684D1*
X1496765Y2059531D1*
X1500568Y2061432D1*
X1508217D1*
X1449970D2*
Y2021240D1*
X1476764Y2061432D1*
Y2021240D1*
X1437618Y2061432D2*
Y2021240D1*
X1396571Y2051882D2*
X1398472Y2055684D1*
X1402319Y2059531D1*
X1406122Y2061432D1*
X1413771D1*
X1417618Y2059531D1*
X1421420Y2055684D1*
X1423366Y2051882D1*
X1425267Y2046134D1*
Y2036539D1*
X1423366Y2030835D1*
X1421420Y2026988D1*
X1417618Y2023186D1*
X1413771Y2021240D1*
X1406122D1*
X1402319Y2023186D1*
X1398472Y2026988D1*
X1396571Y2030835D1*
X1357425Y2055684D2*
X1361227Y2059531D1*
X1366975Y2061432D1*
X1374625D1*
X1380373Y2059531D1*
X1384220Y2055684D1*
Y2051882D1*
X1382274Y2048035D1*
X1380373Y2046134D1*
X1376570Y2044232D1*
X1365074Y2040386D1*
X1361227Y2038484D1*
X1359326Y2036539D1*
X1357425Y2032736D1*
Y2026988D1*
X1361227Y2023186D1*
X1366975Y2021240D1*
X1374625D1*
X1380373Y2023186D1*
X1384220Y2026988D1*
X1275595Y2021240D2*
Y2061432D1*
X1290894Y2021240D1*
X1306193Y2061432D1*
Y2021240D1*
X1238395Y2061432D2*
X1263244D1*
Y2021240D1*
X1238395D1*
X1263244Y2042287D2*
X1247945D1*
X1226044D2*
X1208844D1*
X1203096Y2044232D1*
X1201150Y2046134D1*
X1199249Y2049936D1*
Y2053783D1*
X1201150Y2057586D1*
X1203096Y2059531D1*
X1208844Y2061432D1*
X1226044D1*
Y2021240D1*
X1212646Y2042287D2*
X1199249Y2021240D1*
X1186897Y2061432D2*
Y2021240D1*
X1161149Y2061432D2*
Y2021240D1*
X1174546Y2061432D2*
X1147751D1*
X1096519D2*
Y2021240D1*
X1079275D1*
X1073527Y2023186D1*
X1071626Y2025087D1*
X1069725Y2028890D1*
Y2034638D1*
X1071626Y2038484D1*
X1073527Y2040386D1*
X1079275Y2042287D1*
X1073527Y2044232D1*
X1071626Y2046134D1*
X1069725Y2049936D1*
Y2053783D1*
X1071626Y2057586D1*
X1073527Y2059531D1*
X1079275Y2061432D1*
X1096519D1*
Y2042287D2*
X1079275D1*
X1026732Y2021240D2*
X1042075Y2061432D1*
X1057373Y2021240D1*
X1051625Y2034638D2*
X1032480D1*
X1014380Y2061432D2*
Y2021240D1*
X1000983D1*
X995235Y2023186D1*
X991388Y2026988D1*
X989487Y2030835D1*
X987586Y2036539D1*
Y2046134D1*
X989487Y2051882D1*
X991388Y2055684D1*
X995235Y2059531D1*
X1000983Y2061432D1*
X1014380D1*
X946538Y2051882D2*
X948440Y2055684D1*
X952286Y2059531D1*
X956089Y2061432D1*
X963738D1*
X967585Y2059531D1*
X971387Y2055684D1*
X973333Y2051882D1*
X975234Y2046134D1*
Y2036539D1*
X973333Y2030835D1*
X971387Y2026988D1*
X967585Y2023186D1*
X963738Y2021240D1*
X956089D1*
X952286Y2023186D1*
X948440Y2026988D1*
X946538Y2030835D1*
Y2036539D1*
X956089D1*
X909338Y2061432D2*
X934187D1*
Y2021240D1*
X909338D1*
X934187Y2042287D2*
X918888D1*
X1884553Y1979787D2*
X1867353D1*
X1861605Y1981732D1*
X1859660Y1983634D1*
X1857758Y1987436D1*
Y1991283D1*
X1859660Y1995086D1*
X1861605Y1997031D1*
X1867353Y1998932D1*
X1884553D1*
Y1958740D1*
X1871156Y1979787D2*
X1857758Y1958740D1*
X1820558Y1998932D2*
X1845407D1*
Y1958740D1*
X1820558D1*
X1845407Y1979787D2*
X1830108D1*
X1781412Y1993184D2*
X1785214Y1997031D1*
X1790962Y1998932D1*
X1798612D1*
X1804360Y1997031D1*
X1808206Y1993184D1*
Y1989382D1*
X1806261Y1985535D1*
X1804360Y1983634D1*
X1800557Y1981732D1*
X1789061Y1977886D1*
X1785214Y1975984D1*
X1783313Y1974039D1*
X1781412Y1970236D1*
Y1964488D1*
X1785214Y1960686D1*
X1790962Y1958740D1*
X1798612D1*
X1804360Y1960686D1*
X1808206Y1964488D1*
X1769060Y1998932D2*
Y1958740D1*
X1728013Y1989382D2*
X1729914Y1993184D1*
X1733761Y1997031D1*
X1737563Y1998932D1*
X1745213D1*
X1749060Y1997031D1*
X1752862Y1993184D1*
X1754808Y1989382D1*
X1756709Y1983634D1*
Y1974039D1*
X1754808Y1968335D1*
X1752862Y1964488D1*
X1749060Y1960686D1*
X1745213Y1958740D1*
X1737563D1*
X1733761Y1960686D1*
X1729914Y1964488D1*
X1728013Y1968335D1*
X1685020Y1958740D2*
X1700363Y1998932D1*
X1715662Y1958740D1*
X1709913Y1972138D2*
X1690768D1*
X1608895Y1998932D2*
X1633788D1*
Y1958740D1*
Y1979787D2*
X1618489D1*
X1565902Y1958740D2*
X1581245Y1998932D1*
X1596543Y1958740D1*
X1590795Y1972138D2*
X1571650D1*
X1553550Y1998932D2*
Y1958740D1*
X1530602D1*
X1518251Y1998932D2*
Y1958740D1*
X1495303D1*
X1456157Y1993184D2*
X1459960Y1997031D1*
X1465708Y1998932D1*
X1473357D1*
X1479105Y1997031D1*
X1482952Y1993184D1*
Y1989382D1*
X1481006Y1985535D1*
X1479105Y1983634D1*
X1475302Y1981732D1*
X1463806Y1977886D1*
X1459960Y1975984D1*
X1458058Y1974039D1*
X1456157Y1970236D1*
Y1964488D1*
X1459960Y1960686D1*
X1465708Y1958740D1*
X1473357D1*
X1479105Y1960686D1*
X1482952Y1964488D1*
X1378130Y1993184D2*
X1381933Y1997031D1*
X1387681Y1998932D1*
X1395330D1*
X1401078Y1997031D1*
X1404925Y1993184D1*
Y1989382D1*
X1402979Y1985535D1*
X1401078Y1983634D1*
X1397276Y1981732D1*
X1385779Y1977886D1*
X1381933Y1975984D1*
X1380031Y1974039D1*
X1378130Y1970236D1*
Y1964488D1*
X1381933Y1960686D1*
X1387681Y1958740D1*
X1395330D1*
X1401078Y1960686D1*
X1404925Y1964488D1*
X1337083Y1989382D2*
X1338984Y1993184D1*
X1342831Y1997031D1*
X1346633Y1998932D1*
X1354283D1*
X1358129Y1997031D1*
X1361932Y1993184D1*
X1363878Y1989382D1*
X1365779Y1983634D1*
Y1974039D1*
X1363878Y1968335D1*
X1361932Y1964488D1*
X1358129Y1960686D1*
X1354283Y1958740D1*
X1346633D1*
X1342831Y1960686D1*
X1338984Y1964488D1*
X1337083Y1968335D1*
X1313235Y1998932D2*
X1317082Y1997031D1*
X1320885Y1993184D1*
X1322830Y1989382D1*
X1324731Y1983634D1*
Y1974039D1*
X1322830Y1968335D1*
X1320885Y1964488D1*
X1317082Y1960686D1*
X1313235Y1958740D1*
X1305586D1*
X1301784Y1960686D1*
X1297937Y1964488D1*
X1296035Y1968335D1*
X1294134Y1974039D1*
Y1983634D1*
X1296035Y1989382D1*
X1297937Y1993184D1*
X1301784Y1997031D1*
X1305586Y1998932D1*
X1313235D1*
X1281783D2*
Y1970236D1*
X1279882Y1964488D1*
X1276035Y1960686D1*
X1270287Y1958740D1*
X1266484D1*
X1260736Y1960686D1*
X1256889Y1964488D1*
X1254988Y1970236D1*
Y1998932D1*
X1229239D2*
Y1958740D1*
X1242637Y1998932D2*
X1215842D1*
X1164610Y1979787D2*
X1147410D1*
X1141662Y1981732D1*
X1139717Y1983634D1*
X1137815Y1987436D1*
Y1991283D1*
X1139717Y1995086D1*
X1141662Y1997031D1*
X1147410Y1998932D1*
X1164610D1*
Y1958740D1*
X1151213Y1979787D2*
X1137815Y1958740D1*
X1100615Y1998932D2*
X1125464D1*
Y1958740D1*
X1100615D1*
X1125464Y1979787D2*
X1110165D1*
X1061469Y1993184D2*
X1065271Y1997031D1*
X1071019Y1998932D1*
X1078668D1*
X1084417Y1997031D1*
X1088263Y1993184D1*
Y1989382D1*
X1086318Y1985535D1*
X1084417Y1983634D1*
X1080614Y1981732D1*
X1069118Y1977886D1*
X1065271Y1975984D1*
X1063370Y1974039D1*
X1061469Y1970236D1*
Y1964488D1*
X1065271Y1960686D1*
X1071019Y1958740D1*
X1078668D1*
X1084417Y1960686D1*
X1088263Y1964488D1*
X1024268Y1998932D2*
X1049117D1*
Y1958740D1*
X1024268D1*
X1049117Y1979787D2*
X1033819D1*
X1011917D2*
X994717D1*
X988969Y1981732D1*
X987023Y1983634D1*
X985122Y1987436D1*
Y1991283D1*
X987023Y1995086D1*
X988969Y1997031D1*
X994717Y1998932D1*
X1011917D1*
Y1958740D1*
X998519Y1979787D2*
X985122Y1958740D1*
X972771Y1998932D2*
X957472Y1958740D1*
X942173Y1998932D1*
X899181Y1958740D2*
X914523Y1998932D1*
X929822Y1958740D1*
X924074Y1972138D2*
X904929D1*
X873432Y1998932D2*
Y1958740D1*
X886829Y1998932D2*
X860034D1*
X847683D2*
Y1958740D1*
X823836Y1998932D2*
X827682Y1997031D1*
X831485Y1993184D1*
X833430Y1989382D1*
X835332Y1983634D1*
Y1974039D1*
X833430Y1968335D1*
X831485Y1964488D1*
X827682Y1960686D1*
X823836Y1958740D1*
X816186D1*
X812384Y1960686D1*
X808537Y1964488D1*
X806636Y1968335D1*
X804734Y1974039D1*
Y1983634D1*
X806636Y1989382D1*
X808537Y1993184D1*
X812384Y1997031D1*
X816186Y1998932D1*
X823836D1*
X765588D2*
Y1958740D1*
X792383Y1998932D1*
Y1958740D1*
X1731572Y817285D2*
X1714372D1*
X1708624Y819230D1*
X1706678Y821132D1*
X1704777Y824934D1*
Y828781D1*
X1706678Y832584D1*
X1708624Y834529D1*
X1714372Y836430D1*
X1731572D1*
Y796238D1*
X1718175Y817285D2*
X1704777Y796238D1*
X1667577Y836430D2*
X1692426D1*
Y796238D1*
X1667577D1*
X1692426Y817285D2*
X1677127D1*
X1655225Y836430D2*
X1639927Y796238D1*
X1624628Y836430D1*
X1610331Y823033D2*
X1612277Y821087D1*
X1610331Y819186D1*
X1608430Y821087D1*
X1610331Y823033D1*
Y800085D2*
X1612277Y798140D1*
X1610331Y796238D1*
X1608430Y798140D1*
X1610331Y800085D1*
X1557198Y828737D2*
X1553351Y830682D1*
X1547603Y836386D1*
Y796238D1*
X1533350Y800085D2*
X1535251Y798140D1*
X1533350Y796238D1*
X1531405Y798140D1*
X1533350Y800085D1*
X1507557Y836386D2*
X1513305Y834485D1*
X1517152Y828737D1*
X1519053Y819186D1*
Y813438D1*
X1517152Y803888D1*
X1513305Y798140D1*
X1507557Y796238D1*
X1503755D1*
X1498007Y798140D1*
X1494204Y803888D1*
X1492259Y813438D1*
Y819186D1*
X1494204Y828737D1*
X1498007Y834485D1*
X1503755Y836386D1*
X1507557D1*
X1494204Y828737D2*
X1517152Y803888D1*
X1478006Y800085D2*
X1479907Y798140D1*
X1478006Y796238D1*
X1476060Y798140D1*
X1478006Y800085D1*
X1452213Y836386D2*
X1457961Y834485D1*
X1461808Y828737D1*
X1463709Y819186D1*
Y813438D1*
X1461808Y803888D1*
X1457961Y798140D1*
X1452213Y796238D1*
X1448410D1*
X1442662Y798140D1*
X1438860Y803888D1*
X1436914Y813438D1*
Y819186D1*
X1438860Y828737D1*
X1442662Y834485D1*
X1448410Y836386D1*
X1452213D1*
X1438860Y828737D2*
X1461808Y803888D1*
X1374186Y836386D2*
X1379934Y834485D1*
X1383781Y828737D1*
X1385682Y819186D1*
Y813438D1*
X1383781Y803888D1*
X1379934Y798140D1*
X1374186Y796238D1*
X1370384D1*
X1364636Y798140D1*
X1360833Y803888D1*
X1358888Y813438D1*
Y819186D1*
X1360833Y828737D1*
X1364636Y834485D1*
X1370384Y836386D1*
X1374186D1*
X1360833Y828737D2*
X1383781Y803888D1*
X1336986Y836386D2*
X1342689Y834485D1*
X1344635Y830682D1*
Y826836D1*
X1342689Y823033D1*
X1338887Y821087D1*
X1331238Y819186D1*
X1325490Y817285D1*
X1321687Y813438D1*
X1319786Y809636D1*
Y803888D1*
X1321687Y800085D1*
X1323588Y798140D1*
X1329336Y796238D1*
X1336986D1*
X1342689Y798140D1*
X1344635Y800085D1*
X1346536Y803888D1*
Y809636D1*
X1344635Y813438D1*
X1340788Y817285D1*
X1335084Y819186D1*
X1327435Y821087D1*
X1323588Y823033D1*
X1321687Y826836D1*
Y830682D1*
X1323588Y834485D1*
X1329336Y836386D1*
X1336986D1*
X1288289Y836430D2*
Y805833D1*
X1290190Y800085D1*
X1292136Y798184D1*
X1295938Y796238D1*
X1299785D1*
X1303588Y798184D1*
X1305489Y800085D1*
X1307434Y805833D1*
Y809636D1*
X1275938Y836430D2*
Y807734D1*
X1274036Y801986D1*
X1270190Y798184D1*
X1264441Y796238D1*
X1260639D1*
X1254891Y798184D1*
X1251044Y801986D1*
X1249143Y807734D1*
Y836430D1*
X1209997D2*
Y796238D1*
X1236791Y836430D1*
Y796238D1*
X1195700Y826836D2*
Y828737D1*
X1193799Y832584D1*
X1191897Y834485D1*
X1188051Y836386D1*
X1180401D1*
X1176599Y834485D1*
X1174698Y832584D1*
X1172752Y828737D1*
Y824934D1*
X1174698Y821087D1*
X1178500Y815384D1*
X1197645Y796238D1*
X1170851D1*
X1147003Y836386D2*
X1152751Y834485D1*
X1156598Y828737D1*
X1158499Y819186D1*
Y813438D1*
X1156598Y803888D1*
X1152751Y798140D1*
X1147003Y796238D1*
X1143201D1*
X1137453Y798140D1*
X1133650Y803888D1*
X1131705Y813438D1*
Y819186D1*
X1133650Y828737D1*
X1137453Y834485D1*
X1143201Y836386D1*
X1147003D1*
X1133650Y828737D2*
X1156598Y803888D1*
X1117408Y826836D2*
Y828737D1*
X1115507Y832584D1*
X1113605Y834485D1*
X1109758Y836386D1*
X1102109D1*
X1098307Y834485D1*
X1096405Y832584D1*
X1094460Y828737D1*
Y824934D1*
X1096405Y821087D1*
X1100208Y815384D1*
X1119353Y796238D1*
X1092559D1*
X1057259Y836386D2*
X1076360D1*
X1078262Y819186D1*
X1076360Y821087D1*
X1070612Y823033D1*
X1064909D1*
X1059161Y821087D1*
X1055314Y817285D1*
X1053413Y811537D1*
Y807734D1*
X1055314Y801986D1*
X1059161Y798140D1*
X1064909Y796238D1*
X1070612D1*
X1076360Y798140D1*
X1078262Y800085D1*
X1080207Y803888D1*
X1002180Y836430D2*
X975386D1*
X1002180Y796238D1*
X975386D1*
X934338Y826880D2*
X936240Y830682D1*
X940086Y834529D1*
X943889Y836430D1*
X951538D1*
X955385Y834529D1*
X959188Y830682D1*
X961133Y826880D1*
X963034Y821132D1*
Y811537D1*
X961133Y805833D1*
X959188Y801986D1*
X955385Y798184D1*
X951538Y796238D1*
X943889D1*
X940086Y798184D1*
X936240Y801986D1*
X934338Y805833D1*
X1599985Y2174468D2*
D49*
Y2154372D1*
X1593287D1*
X1590413Y2155344D1*
X1588489Y2157246D1*
X1587539Y2159169D1*
X1586588Y2162021D1*
Y2166818D1*
X1587539Y2169692D1*
X1588489Y2171594D1*
X1590413Y2173517D1*
X1593287Y2174468D1*
X1599985D1*
X1567988D2*
X1580412D1*
Y2154372D1*
X1567988D1*
X1580412Y2164895D2*
X1572763D1*
X1548415Y2171594D2*
X1550316Y2173517D1*
X1553190Y2174468D1*
X1557015D1*
X1559889Y2173517D1*
X1561812Y2171594D1*
Y2169692D1*
X1560839Y2167769D1*
X1559889Y2166818D1*
X1557987Y2165868D1*
X1552239Y2163944D1*
X1550316Y2162994D1*
X1549365Y2162021D1*
X1548415Y2160120D1*
Y2157246D1*
X1550316Y2155344D1*
X1553190Y2154372D1*
X1557015D1*
X1559889Y2155344D1*
X1561812Y2157246D1*
X1536491Y2174468D2*
X1538414Y2173517D1*
X1540316Y2171594D1*
X1541288Y2169692D1*
X1542239Y2166818D1*
Y2162021D1*
X1541288Y2159169D1*
X1540316Y2157246D1*
X1538414Y2155344D1*
X1536491Y2154372D1*
X1532666D1*
X1530765Y2155344D1*
X1528842Y2157246D1*
X1527891Y2159169D1*
X1526940Y2162021D1*
Y2166818D1*
X1527891Y2169692D1*
X1528842Y2171594D1*
X1530765Y2173517D1*
X1532666Y2174468D1*
X1536491D1*
X1520765D2*
Y2154372D1*
X1509291D1*
X1503115Y2174468D2*
Y2154372D1*
X1496416D1*
X1493542Y2155344D1*
X1491619Y2157246D1*
X1490668Y2159169D1*
X1489718Y2162021D1*
Y2166818D1*
X1490668Y2169692D1*
X1491619Y2171594D1*
X1493542Y2173517D1*
X1496416Y2174468D1*
X1503115D1*
X1471117D2*
X1483542D1*
Y2154372D1*
X1471117D1*
X1483542Y2164895D2*
X1475893D1*
X1464942D2*
X1456342D1*
X1453468Y2165868D1*
X1452495Y2166818D1*
X1451544Y2168720D1*
Y2170643D1*
X1452495Y2172544D1*
X1453468Y2173517D1*
X1456342Y2174468D1*
X1464942D1*
Y2154372D1*
X1458243Y2164895D2*
X1451544Y2154372D1*
X1595697Y2127532D2*
X1587074D1*
X1584223Y2128483D1*
X1583250Y2129455D1*
X1582299Y2131357D1*
Y2134231D1*
X1583250Y2136132D1*
X1584223Y2137105D1*
X1587074Y2138055D1*
X1595697D1*
Y2117959D1*
X1576123Y2128483D2*
X1567524D1*
X1564650Y2129455D1*
X1563677Y2130406D1*
X1562726Y2132307D1*
Y2134231D1*
X1563677Y2136132D1*
X1564650Y2137105D1*
X1567524Y2138055D1*
X1576123D1*
Y2117959D1*
X1569425Y2128483D2*
X1562726Y2117959D1*
X1541230D2*
X1548901Y2138055D1*
X1556550Y2117959D1*
X1553676Y2124658D2*
X1544104D1*
X1520706Y2133280D2*
X1521657Y2135181D1*
X1523580Y2137105D1*
X1525481Y2138055D1*
X1529306D1*
X1531229Y2137105D1*
X1533131Y2135181D1*
X1534103Y2133280D1*
X1535054Y2130406D1*
Y2125609D1*
X1534103Y2122757D1*
X1533131Y2120833D1*
X1531229Y2118932D1*
X1529306Y2117959D1*
X1525481D1*
X1523580Y2118932D1*
X1521657Y2120833D1*
X1520706Y2122757D1*
X1507832Y2138055D2*
Y2117959D1*
X1514530Y2138055D2*
X1501133D1*
X1494957D2*
Y2117959D1*
X1474434Y2133280D2*
X1475384Y2135181D1*
X1477308Y2137105D1*
X1479209Y2138055D1*
X1483034D1*
X1484957Y2137105D1*
X1486858Y2135181D1*
X1487831Y2133280D1*
X1488782Y2130406D1*
Y2125609D1*
X1487831Y2122757D1*
X1486858Y2120833D1*
X1484957Y2118932D1*
X1483034Y2117959D1*
X1479209D1*
X1477308Y2118932D1*
X1475384Y2120833D1*
X1474434Y2122757D1*
X1455833Y2138055D2*
X1468258D1*
Y2117959D1*
X1455833D1*
X1468258Y2128483D2*
X1460609D1*
X751464Y1909862D2*
D48*
Y1892663D1*
X749518Y1886915D1*
X747617Y1884969D1*
X743814Y1883068D1*
X739967D1*
X736165Y1884969D1*
X734219Y1886915D1*
X732318Y1892663D1*
Y1909862D1*
X772510D1*
X751464Y1896465D2*
X772510Y1883068D1*
X757212Y1870716D2*
Y1847769D1*
X753365D1*
X749518Y1849670D1*
X747617Y1851571D1*
X745715Y1855418D1*
Y1861166D1*
X747617Y1864968D1*
X751464Y1868815D1*
X757212Y1870716D1*
X761014D1*
X766762Y1868815D1*
X770565Y1864968D1*
X772510Y1861166D1*
Y1855418D1*
X770565Y1851571D1*
X766762Y1847769D1*
X751464Y1814370D2*
X747617Y1816272D1*
X745715Y1822020D1*
Y1827768D1*
X747617Y1833516D1*
X751464Y1835417D1*
X755266Y1833516D1*
X757212Y1829669D1*
X759113Y1820119D1*
X761014Y1816272D1*
X764861Y1814370D1*
X766762D1*
X770565Y1816272D1*
X772510Y1822020D1*
Y1827768D1*
X770565Y1833516D1*
X766762Y1835417D1*
X732318Y1802019D2*
X734219Y1800118D1*
X732318Y1798172D1*
X730373Y1800118D1*
X732318Y1802019D1*
X745715Y1800118D2*
X772510D1*
X751464Y1762829D2*
X747617Y1766676D1*
X745715Y1770522D1*
Y1776226D1*
X747617Y1780073D1*
X751464Y1783875D1*
X757212Y1785821D1*
X761014D1*
X766762Y1783875D1*
X770565Y1780073D1*
X772510Y1776226D1*
Y1770522D1*
X770565Y1766676D1*
X766762Y1762829D1*
X745715Y1727529D2*
X772510D1*
X751464D2*
X747617Y1731332D1*
X745715Y1735179D1*
Y1740883D1*
X747617Y1744729D1*
X751464Y1748532D1*
X757212Y1750477D1*
X761014D1*
X766762Y1748532D1*
X770565Y1744729D1*
X772510Y1740883D1*
Y1735179D1*
X770565Y1731332D1*
X766762Y1727529D1*
X732318Y1690285D2*
Y1715178D1*
X772510D1*
X751464D2*
Y1699879D1*
X745715Y1654985D2*
X772510D1*
X751464D2*
X747617Y1658788D1*
X745715Y1662635D1*
Y1668339D1*
X747617Y1672185D1*
X751464Y1675988D1*
X757212Y1677933D1*
X761014D1*
X766762Y1675988D1*
X770565Y1672185D1*
X772510Y1668339D1*
Y1662635D1*
X770565Y1658788D1*
X766762Y1654985D1*
X732318Y1642634D2*
X772510D1*
X732318Y1630283D2*
X772510D1*
X751464Y1596885D2*
X747617Y1598786D1*
X745715Y1604534D1*
Y1610282D1*
X747617Y1616030D1*
X751464Y1617931D1*
X755266Y1616030D1*
X757212Y1612183D1*
X759113Y1602633D1*
X761014Y1598786D1*
X764861Y1596885D1*
X766762D1*
X770565Y1598786D1*
X772510Y1604534D1*
Y1610282D1*
X770565Y1616030D1*
X766762Y1617931D1*
X768663Y1582632D2*
X770609Y1584533D1*
X772510Y1582632D1*
X770609Y1580686D1*
X768663Y1582632D1*
X745715Y1558784D2*
X747617Y1562587D1*
X751464Y1566434D1*
X757212Y1568335D1*
X761014D1*
X766762Y1566434D1*
X770565Y1562587D1*
X772510Y1558784D1*
Y1553036D1*
X770565Y1549190D1*
X766762Y1545387D1*
X761014Y1543442D1*
X757212D1*
X751464Y1545387D1*
X747617Y1549190D1*
X745715Y1553036D1*
Y1558784D1*
Y1531090D2*
X772510D1*
X757212D2*
X751464Y1529145D1*
X747617Y1525342D1*
X745715Y1521495D1*
Y1515747D1*
X747617Y1480448D2*
X778258D1*
X783962Y1482349D1*
X785907Y1484251D1*
X787809Y1488097D1*
Y1493845D1*
X785907Y1497648D1*
X753365Y1480448D2*
X749562Y1484251D1*
X747617Y1488097D1*
Y1493845D1*
X749562Y1497648D1*
X753365Y1501495D1*
X759113Y1503396D1*
X762960D1*
X768663Y1501495D1*
X772510Y1497648D1*
X774411Y1493845D1*
Y1488097D1*
X772510Y1484251D1*
X768663Y1480448D1*
X772510Y1468097D2*
X732362Y1441302D1*
X732318Y1404101D2*
Y1428951D1*
X772510D1*
Y1404101D1*
X751464Y1428951D2*
Y1413652D1*
X732318Y1391750D2*
X772510D1*
X757212Y1379399D2*
Y1356451D1*
X753365D1*
X749518Y1358352D1*
X747617Y1360253D1*
X745715Y1364100D1*
Y1369848D1*
X747617Y1373651D1*
X751464Y1377497D1*
X757212Y1379399D1*
X761014D1*
X766762Y1377497D1*
X770565Y1373651D1*
X772510Y1369848D1*
Y1364100D1*
X770565Y1360253D1*
X766762Y1356451D1*
X751464Y1321107D2*
X747617Y1324954D1*
X745715Y1328801D1*
Y1334505D1*
X747617Y1338351D1*
X751464Y1342154D1*
X757212Y1344099D1*
X761014D1*
X766762Y1342154D1*
X770565Y1338351D1*
X772510Y1334505D1*
Y1328801D1*
X770565Y1324954D1*
X766762Y1321107D1*
X732318Y1303008D2*
X764861D1*
X770565Y1301106D1*
X772510Y1297260D1*
Y1293457D1*
X745715Y1308756D2*
Y1295358D1*
Y1281106D2*
X772510D1*
X757212D2*
X751464Y1279160D1*
X747617Y1275358D1*
X745715Y1271511D1*
Y1265763D1*
Y1243861D2*
X747617Y1247664D1*
X751464Y1251510D1*
X757212Y1253412D1*
X761014D1*
X766762Y1251510D1*
X770565Y1247664D1*
X772510Y1243861D1*
Y1238113D1*
X770565Y1234266D1*
X766762Y1230464D1*
X761014Y1228518D1*
X757212D1*
X751464Y1230464D1*
X747617Y1234266D1*
X745715Y1238113D1*
Y1243861D1*
Y1216167D2*
X772510D1*
X753365D2*
X747617Y1210419D1*
X745715Y1206572D1*
Y1200868D1*
X747617Y1197021D1*
X753365Y1195120D1*
X772510D1*
X732318Y1182769D2*
X734219Y1180867D1*
X732318Y1178922D1*
X730373Y1180867D1*
X732318Y1182769D1*
X745715Y1180867D2*
X772510D1*
X751464Y1143578D2*
X747617Y1147425D1*
X745715Y1151272D1*
Y1156976D1*
X747617Y1160823D1*
X751464Y1164625D1*
X757212Y1166571D1*
X761014D1*
X766762Y1164625D1*
X770565Y1160823D1*
X772510Y1156976D1*
Y1151272D1*
X770565Y1147425D1*
X766762Y1143578D1*
X751464Y1110180D2*
X747617Y1112082D1*
X745715Y1117830D1*
Y1123578D1*
X747617Y1129326D1*
X751464Y1131227D1*
X755266Y1129326D1*
X757212Y1125479D1*
X759113Y1115928D1*
X761014Y1112082D1*
X764861Y1110180D1*
X766762D1*
X770565Y1112082D1*
X772510Y1117830D1*
Y1123578D1*
X770565Y1129326D1*
X766762Y1131227D1*
X772510Y1067232D2*
X732318D1*
X772510Y1082530D1*
X732318Y1097829D1*
X772510D1*
X732318Y1054880D2*
X772510D1*
Y1037636D1*
X770565Y1031888D1*
X768663Y1029987D1*
X764861Y1028086D1*
X759113D1*
X755266Y1029987D1*
X753365Y1031888D1*
X751464Y1037636D1*
X749518Y1031888D1*
X747617Y1029987D1*
X743814Y1028086D1*
X739967D1*
X736165Y1029987D1*
X734219Y1031888D1*
X732318Y1037636D1*
Y1054880D1*
X751464D2*
Y1037636D1*
X657318Y1840796D2*
X659219Y1844642D1*
X663066Y1848445D1*
X666869Y1850390D1*
X672617Y1852292D1*
X682212D1*
X687915Y1850390D1*
X691762Y1848445D1*
X695565Y1844642D1*
X697510Y1840796D1*
Y1833146D1*
X695565Y1829344D1*
X691762Y1825497D1*
X687915Y1823596D1*
X682212Y1821694D1*
X672617D1*
X666869Y1823596D1*
X663066Y1825497D1*
X659219Y1829344D1*
X657318Y1833146D1*
Y1840796D1*
X670715Y1809343D2*
X710907D1*
X676464D2*
X672661Y1805496D1*
X670715Y1801694D1*
Y1795946D1*
X672661Y1792099D1*
X676464Y1788296D1*
X682212Y1786351D1*
X686058D1*
X691762Y1788296D1*
X695609Y1792099D1*
X697510Y1795946D1*
Y1801694D1*
X695609Y1805496D1*
X691762Y1809343D1*
X682212Y1774000D2*
Y1751052D1*
X678365D1*
X674518Y1752953D1*
X672617Y1754854D1*
X670715Y1758701D1*
Y1764449D1*
X672617Y1768252D1*
X676464Y1772098D1*
X682212Y1774000D1*
X686014D1*
X691762Y1772098D1*
X695565Y1768252D1*
X697510Y1764449D1*
Y1758701D1*
X695565Y1754854D1*
X691762Y1751052D1*
X670715Y1738700D2*
X697510D1*
X678365D2*
X672617Y1732952D1*
X670715Y1729105D1*
Y1723402D1*
X672617Y1719555D1*
X678365Y1717654D1*
X697510D1*
X663066Y1639627D2*
X659219Y1643429D1*
X657318Y1649177D1*
Y1656827D1*
X659219Y1662575D1*
X663066Y1666421D1*
X666869D1*
X670715Y1664476D1*
X672617Y1662575D1*
X674518Y1658772D1*
X678365Y1647276D1*
X680266Y1643429D1*
X682212Y1641528D1*
X686014Y1639627D1*
X691762D1*
X695565Y1643429D1*
X697510Y1649177D1*
Y1656827D1*
X695565Y1662575D1*
X691762Y1666421D1*
X670715Y1617725D2*
X672617Y1621527D1*
X676464Y1625374D1*
X682212Y1627275D1*
X686014D1*
X691762Y1625374D1*
X695565Y1621527D1*
X697510Y1617725D1*
Y1611977D1*
X695565Y1608130D1*
X691762Y1604327D1*
X686014Y1602382D1*
X682212D1*
X676464Y1604327D1*
X672617Y1608130D1*
X670715Y1611977D1*
Y1617725D1*
Y1590031D2*
X689861D1*
X695565Y1588129D1*
X697510Y1584283D1*
Y1578534D1*
X695565Y1574732D1*
X689861Y1568984D1*
X670715D2*
X697510D1*
X670715Y1556633D2*
X697510D1*
X682212D2*
X676464Y1554687D1*
X672617Y1550884D1*
X670715Y1547038D1*
Y1541290D1*
X676464Y1505946D2*
X672617Y1509793D1*
X670715Y1513640D1*
Y1519344D1*
X672617Y1523190D1*
X676464Y1526993D1*
X682212Y1528938D1*
X686014D1*
X691762Y1526993D1*
X695565Y1523190D1*
X697510Y1519344D1*
Y1513640D1*
X695565Y1509793D1*
X691762Y1505946D1*
X682212Y1493595D2*
Y1470647D1*
X678365D1*
X674518Y1472548D1*
X672617Y1474449D1*
X670715Y1478296D1*
Y1484044D1*
X672617Y1487847D1*
X676464Y1491694D1*
X682212Y1493595D1*
X686014D1*
X691762Y1491694D1*
X695565Y1487847D1*
X697510Y1484044D1*
Y1478296D1*
X695565Y1474449D1*
X691762Y1470647D1*
X657318Y1419415D2*
X697510D1*
X657318Y1392620D2*
X697510D1*
X676464Y1419415D2*
Y1392620D1*
X670715Y1357321D2*
X697510D1*
X676464D2*
X672617Y1361123D1*
X670715Y1364970D1*
Y1370674D1*
X672617Y1374521D1*
X676464Y1378323D1*
X682212Y1380269D1*
X686014D1*
X691762Y1378323D1*
X695565Y1374521D1*
X697510Y1370674D1*
Y1364970D1*
X695565Y1361123D1*
X691762Y1357321D1*
X670715Y1344969D2*
X697510D1*
X682212D2*
X676464Y1343024D1*
X672617Y1339221D1*
X670715Y1335375D1*
Y1329627D1*
X657318Y1294327D2*
X697510D1*
X676464D2*
X672617Y1298130D1*
X670715Y1301976D1*
Y1307725D1*
X672617Y1311527D1*
X676464Y1315374D1*
X682212Y1317275D1*
X686014D1*
X691762Y1315374D1*
X695565Y1311527D1*
X697510Y1307725D1*
Y1301976D1*
X695565Y1298130D1*
X691762Y1294327D1*
X670715Y1281976D2*
X697510Y1274326D1*
X670715Y1266677D1*
X697510Y1259028D1*
X670715Y1251379D1*
Y1216079D2*
X697510D1*
X676464D2*
X672617Y1219882D1*
X670715Y1223729D1*
Y1229432D1*
X672617Y1233279D1*
X676464Y1237082D1*
X682212Y1239027D1*
X686014D1*
X691762Y1237082D1*
X695565Y1233279D1*
X697510Y1229432D1*
Y1223729D1*
X695565Y1219882D1*
X691762Y1216079D1*
X670715Y1203728D2*
X697510D1*
X682212D2*
X676464Y1201782D1*
X672617Y1197980D1*
X670715Y1194133D1*
Y1188385D1*
X682212Y1176034D2*
Y1153086D1*
X678365D1*
X674518Y1154987D1*
X672617Y1156888D1*
X670715Y1160735D1*
Y1166483D1*
X672617Y1170286D1*
X676464Y1174132D1*
X682212Y1176034D1*
X686014D1*
X691762Y1174132D1*
X695565Y1170286D1*
X697510Y1166483D1*
Y1160735D1*
X695565Y1156888D1*
X691762Y1153086D1*
X1612931Y1841254D2*
Y1801062D1*
X1573785Y1841254D2*
Y1801062D1*
X1600579Y1841254D1*
Y1801062D1*
X1534638Y1835506D2*
X1538441Y1839353D1*
X1544189Y1841254D1*
X1551838D1*
X1557586Y1839353D1*
X1561433Y1835506D1*
Y1831704D1*
X1559488Y1827857D1*
X1557586Y1825956D1*
X1553784Y1824054D1*
X1542288Y1820208D1*
X1538441Y1818306D1*
X1536540Y1816361D1*
X1534638Y1812558D1*
Y1806810D1*
X1538441Y1803008D1*
X1544189Y1801062D1*
X1551838D1*
X1557586Y1803008D1*
X1561433Y1806810D1*
X1497438Y1841254D2*
X1522287D1*
Y1801062D1*
X1497438D1*
X1522287Y1822109D2*
X1506988D1*
X1485086D2*
X1467887D1*
X1462139Y1824054D1*
X1460193Y1825956D1*
X1458292Y1829758D1*
Y1833605D1*
X1460193Y1837408D1*
X1462139Y1839353D1*
X1467887Y1841254D1*
X1485086D1*
Y1801062D1*
X1471689Y1822109D2*
X1458292Y1801062D1*
X1432543Y1841254D2*
Y1801062D1*
X1445940Y1841254D2*
X1419146D1*
X1350714Y1838358D2*
Y1803914D1*
X1367914Y1821114D2*
X1333470D1*
X1255443Y1835506D2*
X1259245Y1839353D1*
X1264993Y1841254D1*
X1272643D1*
X1278391Y1839353D1*
X1282237Y1835506D1*
Y1831704D1*
X1280292Y1827857D1*
X1278391Y1825956D1*
X1274588Y1824054D1*
X1263092Y1820208D1*
X1259245Y1818306D1*
X1257344Y1816361D1*
X1255443Y1812558D1*
Y1806810D1*
X1259245Y1803008D1*
X1264993Y1801062D1*
X1272643D1*
X1278391Y1803008D1*
X1282237Y1806810D1*
X1243091Y1841254D2*
Y1801062D1*
X1230740Y1841254D2*
Y1801062D1*
X1217343D1*
X1211595Y1803008D1*
X1207748Y1806810D1*
X1205847Y1810657D1*
X1203945Y1816361D1*
Y1825956D1*
X1205847Y1831704D1*
X1207748Y1835506D1*
X1211595Y1839353D1*
X1217343Y1841254D1*
X1230740D1*
X1166745D2*
X1191594D1*
Y1801062D1*
X1166745D1*
X1191594Y1822109D2*
X1176295D1*
X1115513Y1841254D2*
Y1812558D1*
X1113611Y1806810D1*
X1109764Y1803008D1*
X1104016Y1801062D1*
X1100214D1*
X1094466Y1803008D1*
X1090619Y1806810D1*
X1088718Y1812558D1*
Y1841254D1*
X1076366Y1820208D2*
X1059122D1*
X1053419Y1822109D1*
X1051473Y1824054D1*
X1049572Y1827857D1*
Y1833605D1*
X1051473Y1837408D1*
X1053419Y1839353D1*
X1059122Y1841254D1*
X1076366D1*
Y1801062D1*
X1584235Y1894204D2*
X1586136Y1898006D1*
X1589983Y1901853D1*
X1593785Y1903754D1*
X1601435D1*
X1605281Y1901853D1*
X1609084Y1898006D1*
X1611029Y1894204D1*
X1612931Y1888456D1*
Y1878861D1*
X1611029Y1873157D1*
X1609084Y1869310D1*
X1605281Y1865508D1*
X1601435Y1863562D1*
X1593785D1*
X1589983Y1865508D1*
X1586136Y1869310D1*
X1584235Y1873157D1*
X1571883Y1884609D2*
X1554683D1*
X1548935Y1886554D1*
X1546990Y1888456D1*
X1545089Y1892258D1*
Y1896105D1*
X1546990Y1899908D1*
X1548935Y1901853D1*
X1554683Y1903754D1*
X1571883D1*
Y1863562D1*
X1558486Y1884609D2*
X1545089Y1863562D1*
X1530792Y1894160D2*
Y1896061D1*
X1528890Y1899908D1*
X1526989Y1901809D1*
X1523142Y1903710D1*
X1515493D1*
X1511691Y1901809D1*
X1509789Y1899908D1*
X1507844Y1896061D1*
Y1892258D1*
X1509789Y1888411D1*
X1513592Y1882708D1*
X1532737Y1863562D1*
X1505943D1*
X1482095Y1903710D2*
X1487843Y1901809D1*
X1491690Y1896061D1*
X1493591Y1886510D1*
Y1880762D1*
X1491690Y1871212D1*
X1487843Y1865464D1*
X1482095Y1863562D1*
X1478292D1*
X1472544Y1865464D1*
X1468742Y1871212D1*
X1466796Y1880762D1*
Y1886510D1*
X1468742Y1896061D1*
X1472544Y1901809D1*
X1478292Y1903710D1*
X1482095D1*
X1468742Y1896061D2*
X1491690Y1871212D1*
X1450598Y1903710D2*
X1429596D1*
X1441048Y1888411D1*
X1435300D1*
X1431497Y1886510D1*
X1429596Y1884609D1*
X1427650Y1878861D1*
Y1875058D1*
X1429596Y1869310D1*
X1433398Y1865464D1*
X1439146Y1863562D1*
X1444894D1*
X1450598Y1865464D1*
X1452500Y1867409D1*
X1454445Y1871212D1*
X1413353Y1894160D2*
Y1896061D1*
X1411452Y1899908D1*
X1409551Y1901809D1*
X1405704Y1903710D1*
X1398055D1*
X1394252Y1901809D1*
X1392351Y1899908D1*
X1390406Y1896061D1*
Y1892258D1*
X1392351Y1888411D1*
X1396154Y1882708D1*
X1415299Y1863562D1*
X1388504D1*
X1337272Y1903754D2*
Y1863562D1*
X1320028D1*
X1314280Y1865508D1*
X1312379Y1867409D1*
X1310477Y1871212D1*
Y1876960D1*
X1312379Y1880806D1*
X1314280Y1882708D1*
X1320028Y1884609D1*
X1314280Y1886554D1*
X1312379Y1888456D1*
X1310477Y1892258D1*
Y1896105D1*
X1312379Y1899908D1*
X1314280Y1901853D1*
X1320028Y1903754D1*
X1337272D1*
Y1884609D2*
X1320028D1*
X1267485Y1863562D2*
X1282827Y1903754D1*
X1298126Y1863562D1*
X1292378Y1876960D2*
X1273233D1*
X1241736Y1903754D2*
Y1863562D1*
X1255133Y1903754D2*
X1228339D1*
X1202590D2*
Y1863562D1*
X1215987Y1903754D2*
X1189193D1*
X1151992D2*
X1176841D1*
Y1863562D1*
X1151992D1*
X1176841Y1884609D2*
X1161542D1*
X1139641D2*
X1122441D1*
X1116693Y1886554D1*
X1114747Y1888456D1*
X1112846Y1892258D1*
Y1896105D1*
X1114747Y1899908D1*
X1116693Y1901853D1*
X1122441Y1903754D1*
X1139641D1*
Y1863562D1*
X1126243Y1884609D2*
X1112846Y1863562D1*
X1100494Y1903754D2*
X1085196Y1884609D1*
Y1863562D1*
X1069897Y1903754D2*
X1085196Y1884609D1*
X1656056Y1065167D2*
X1646461Y1024975D1*
X1636911Y1065167D1*
X1627360Y1024975D1*
X1617765Y1065167D1*
X1574772Y1024975D2*
X1590115Y1065167D1*
X1605414Y1024975D1*
X1599666Y1038372D2*
X1580521D1*
X1562421Y1046021D2*
X1545221D1*
X1539473Y1047967D1*
X1537528Y1049868D1*
X1535626Y1053671D1*
Y1057517D1*
X1537528Y1061320D1*
X1539473Y1063265D1*
X1545221Y1065167D1*
X1562421D1*
Y1024975D1*
X1549024Y1046021D2*
X1535626Y1024975D1*
X1496480Y1065167D2*
Y1024975D1*
X1523275Y1065167D1*
Y1024975D1*
X1484129Y1065167D2*
Y1024975D1*
X1444983Y1065167D2*
Y1024975D1*
X1471778Y1065167D1*
Y1024975D1*
X1403936Y1055616D2*
X1405837Y1059419D1*
X1409684Y1063265D1*
X1413486Y1065167D1*
X1421135D1*
X1424982Y1063265D1*
X1428785Y1059419D1*
X1430730Y1055616D1*
X1432631Y1049868D1*
Y1040273D1*
X1430730Y1034569D1*
X1428785Y1030723D1*
X1424982Y1026920D1*
X1421135Y1024975D1*
X1413486D1*
X1409684Y1026920D1*
X1405837Y1030723D1*
X1403936Y1034569D1*
Y1040273D1*
X1413486D1*
X1389639Y1051769D2*
X1391584Y1049824D1*
X1389639Y1047923D1*
X1387737Y1049824D1*
X1389639Y1051769D1*
Y1028821D2*
X1391584Y1026876D1*
X1389639Y1024975D1*
X1387737Y1026876D1*
X1389639Y1028821D1*
X1307809Y1055616D2*
X1309711Y1059419D1*
X1313557Y1063265D1*
X1317360Y1065167D1*
X1325009D1*
X1328856Y1063265D1*
X1332658Y1059419D1*
X1334604Y1055616D1*
X1336505Y1049868D1*
Y1040273D1*
X1334604Y1034569D1*
X1332658Y1030723D1*
X1328856Y1026920D1*
X1325009Y1024975D1*
X1317360D1*
X1313557Y1026920D1*
X1309711Y1030723D1*
X1307809Y1034569D1*
X1295458Y1065167D2*
Y1024975D1*
X1268663Y1065167D2*
Y1024975D1*
X1295458Y1046021D2*
X1268663D1*
X1244816Y1065167D2*
X1248663Y1063265D1*
X1252465Y1059419D1*
X1254411Y1055616D1*
X1256312Y1049868D1*
Y1040273D1*
X1254411Y1034569D1*
X1252465Y1030723D1*
X1248663Y1026920D1*
X1244816Y1024975D1*
X1237166D1*
X1233364Y1026920D1*
X1229517Y1030723D1*
X1227616Y1034569D1*
X1225715Y1040273D1*
Y1049868D1*
X1227616Y1055616D1*
X1229517Y1059419D1*
X1233364Y1063265D1*
X1237166Y1065167D1*
X1244816D1*
X1213363D2*
Y1024975D1*
X1186569Y1065167D2*
X1213363Y1038372D1*
X1203813Y1047967D2*
X1186569Y1024975D1*
X1174217Y1065167D2*
Y1024975D1*
X1135071Y1065167D2*
Y1024975D1*
X1161866Y1065167D1*
Y1024975D1*
X1094024Y1055616D2*
X1095925Y1059419D1*
X1099772Y1063265D1*
X1103574Y1065167D1*
X1111224D1*
X1115070Y1063265D1*
X1118873Y1059419D1*
X1120818Y1055616D1*
X1122720Y1049868D1*
Y1040273D1*
X1120818Y1034569D1*
X1118873Y1030723D1*
X1115070Y1026920D1*
X1111224Y1024975D1*
X1103574D1*
X1099772Y1026920D1*
X1095925Y1030723D1*
X1094024Y1034569D1*
Y1040273D1*
X1103574D1*
X1006446Y1051769D2*
X1008392D1*
X1010293Y1049824D1*
X1012194Y1046021D1*
X1016041Y1036471D1*
X1019844Y1030723D1*
X1023646Y1026876D1*
X1027493Y1024975D1*
X1035142D1*
X1038945Y1026876D1*
X1040890Y1028821D1*
X1042792Y1032624D1*
Y1036471D1*
X1040890Y1040273D1*
X1038945Y1042175D1*
X1025592Y1049824D1*
X1023646Y1051769D1*
X1021745Y1055572D1*
Y1059419D1*
X1023646Y1063221D1*
X1027493Y1065122D1*
X1031295Y1063221D1*
X1033241Y1059419D1*
Y1055572D1*
X1031295Y1049824D1*
X1027493Y1044120D1*
X1017942Y1030723D1*
X1014096Y1026876D1*
X1010293Y1024975D1*
X1006446D1*
X1617043Y992342D2*
Y952150D1*
X1577897Y992342D2*
Y952150D1*
X1604691Y992342D1*
Y952150D1*
X1536849Y982791D2*
X1538750Y986594D1*
X1542597Y990441D1*
X1546400Y992342D1*
X1554049D1*
X1557896Y990441D1*
X1561698Y986594D1*
X1563644Y982791D1*
X1565545Y977043D1*
Y967449D1*
X1563644Y961745D1*
X1561698Y957898D1*
X1557896Y954095D1*
X1554049Y952150D1*
X1546400D1*
X1542597Y954095D1*
X1538750Y957898D1*
X1536849Y961745D1*
Y967449D1*
X1546400D1*
X1499649Y992342D2*
X1524498D1*
Y952150D1*
X1499649D1*
X1524498Y973197D2*
X1509199D1*
X1460503Y986594D2*
X1464305Y990441D1*
X1470053Y992342D1*
X1477702D1*
X1483450Y990441D1*
X1487297Y986594D1*
Y982791D1*
X1485352Y978945D1*
X1483450Y977043D1*
X1479648Y975142D1*
X1468152Y971295D1*
X1464305Y969394D1*
X1462404Y967449D1*
X1460503Y963646D1*
Y957898D1*
X1464305Y954095D1*
X1470053Y952150D1*
X1477702D1*
X1483450Y954095D1*
X1487297Y957898D1*
X1434754Y992342D2*
Y952150D1*
X1448151Y992342D2*
X1421357D1*
X1409005D2*
Y952150D1*
X1385158Y992342D2*
X1389004Y990441D1*
X1392807Y986594D1*
X1394752Y982791D1*
X1396654Y977043D1*
Y967449D1*
X1394752Y961745D1*
X1392807Y957898D1*
X1389004Y954095D1*
X1385158Y952150D1*
X1377508D1*
X1373706Y954095D1*
X1369859Y957898D1*
X1367958Y961745D1*
X1366056Y967449D1*
Y977043D1*
X1367958Y982791D1*
X1369859Y986594D1*
X1373706Y990441D1*
X1377508Y992342D1*
X1385158D1*
X1326910D2*
Y952150D1*
X1353705Y992342D1*
Y952150D1*
X1275678Y992342D2*
Y952150D1*
X1248884Y992342D2*
Y952150D1*
X1275678Y973197D2*
X1248884D1*
X1205891Y952150D2*
X1221234Y992342D1*
X1236532Y952150D1*
X1230784Y965547D2*
X1211639D1*
X1193539Y992342D2*
X1166745D1*
X1193539Y952150D1*
X1166745D1*
X1123752D2*
X1139095Y992342D1*
X1154393Y952150D1*
X1148645Y965547D2*
X1129500D1*
X1111400Y973197D2*
X1094201D1*
X1088453Y975142D1*
X1086507Y977043D1*
X1084606Y980846D1*
Y984693D1*
X1086507Y988495D1*
X1088453Y990441D1*
X1094201Y992342D1*
X1111400D1*
Y952150D1*
X1098003Y973197D2*
X1084606Y952150D1*
X1072254Y992342D2*
Y952150D1*
X1058857D1*
X1053109Y954095D1*
X1049262Y957898D1*
X1047361Y961745D1*
X1045460Y967449D1*
Y977043D1*
X1047361Y982791D1*
X1049262Y986594D1*
X1053109Y990441D1*
X1058857Y992342D1*
X1072254D1*
X993280Y1712682D2*
D44*
Y1682538D1*
X980347D1*
X976036Y1683998D1*
X974610Y1685423D1*
X973184Y1688275D1*
Y1692586D1*
X974610Y1695471D1*
X976036Y1696897D1*
X980347Y1698323D1*
X976036Y1699782D1*
X974610Y1701208D1*
X973184Y1704060D1*
Y1706945D1*
X974610Y1709797D1*
X976036Y1711256D1*
X980347Y1712682D1*
X993280D1*
Y1698323D2*
X980347D1*
X963920Y1706912D2*
X961035Y1708371D1*
X956724Y1712649D1*
Y1682538D1*
M02*
